<?xml version="1.0" encoding="UTF-8" standalone="no"?>
<!-- Created with Inkscape (http://www.inkscape.org/) -->

<svg
   version="1.0"
   width="717.80786"
   height="801.58386"
   id="svg2"
   sodipodi:version="0.32"
   inkscape:version="1.1.1 (3bf5ae0d25, 2021-09-20)"
   sodipodi:docname="Wuerttemberg_Arms.svg"
   inkscape:output_extension="org.inkscape.output.svg.inkscape"
   xmlns:inkscape="http://www.inkscape.org/namespaces/inkscape"
   xmlns:sodipodi="http://sodipodi.sourceforge.net/DTD/sodipodi-0.dtd"
   xmlns="http://www.w3.org/2000/svg"
   xmlns:svg="http://www.w3.org/2000/svg"
   xmlns:rdf="http://www.w3.org/1999/02/22-rdf-syntax-ns#"
   xmlns:cc="http://creativecommons.org/ns#"
   xmlns:dc="http://purl.org/dc/elements/1.1/">
  <metadata
     id="metadata8">
    <rdf:RDF>
      <cc:Work
         rdf:about="">
        <dc:format>image/svg+xml</dc:format>
        <dc:type
           rdf:resource="http://purl.org/dc/dcmitype/StillImage" />
      </cc:Work>
    </rdf:RDF>
  </metadata>
  <sodipodi:namedview
     inkscape:window-height="1017"
     inkscape:window-width="1920"
     inkscape:pageshadow="2"
     inkscape:pageopacity="0.0"
     guidetolerance="10.0"
     gridtolerance="10.0"
     objecttolerance="10.0"
     borderopacity="1.0"
     bordercolor="#666666"
     pagecolor="#ffffff"
     id="base"
     inkscape:zoom="0.94063768"
     inkscape:cx="279.06601"
     inkscape:cy="386.43998"
     inkscape:window-x="-8"
     inkscape:window-y="-8"
     inkscape:current-layer="svg2"
     inkscape:pagecheckerboard="0"
     showgrid="false"
     inkscape:window-maximized="1" />
  <defs
     id="defs4" />
  <path
     id="path2172"
     style="fill:#fcdd09;fill-opacity:1;fill-rule:evenodd;stroke:#000000;stroke-width:4.64654255px;stroke-linecap:butt;stroke-linejoin:miter;stroke-opacity:1"
     d="M 2.323271,2.32327 L 715.48458,2.32327 L 682.65773,517.89845 C 611.30329,916.57913 78.645456,873.49813 32.578004,502.64384 L 2.323271,2.32327 z " />
  <path
     id="path2170"
     style="fill:#000000"
     d="M 193.66371,669.74179 C 191.92393,663.0889 188.8339,661.3055 182.51905,663.30981 C 171.26379,666.88208 151.5314,654.00431 151.5314,643.08659 C 151.5314,638.45702 154.59519,632.12643 158.33981,629.01867 C 162.08445,625.91089 165.14823,617.53779 165.14823,610.4118 C 165.14823,592.55201 183.53108,580.20762 199.37613,587.42711 C 210.32002,592.41344 210.53756,592.11962 210.53756,572.35494 C 210.53756,529.67135 242.23273,474.90518 271.1332,467.65159 C 277.98069,465.93296 284.66223,465.60587 285.98106,466.92464 C 287.29986,468.24342 280.6688,485.13406 271.24537,504.45935 C 258.22207,531.16711 254.05735,545.36572 253.88465,563.64657 C 253.6192,591.73975 257.67755,597.13189 281.47617,600.30598 C 308.02848,603.84734 321.74833,590.96746 327.75642,556.85902 C 333.6456,523.42577 347.17207,496.29086 363.62381,484.90708 C 380.55209,473.19348 414.37344,460.28517 419.62769,463.5325 C 426.73085,467.92251 424.60128,472.58313 405.65937,494.10231 C 383.57973,519.18608 369.63406,548.54996 369.49989,570.23948 C 369.38111,589.44297 375.99501,597.24615 392.39057,597.24615 C 408.91758,597.24615 424.56819,583.8767 445.44648,551.92341 C 455.13567,537.09446 468.03121,521.21006 474.10318,516.62471 C 488.15524,506.01297 545.94785,481.78902 549.27498,485.11619 C 555.00921,490.85035 543.96166,509.08552 521.15607,531.52955 C 494.71585,557.55048 473.79568,585.85634 473.79568,595.61008 C 473.79568,600.11711 481.00229,601.78507 500.475,601.78507 C 515.1486,601.78507 534.30808,604.77413 543.05166,608.42744 C 559.04115,615.10823 587.15536,643.58301 579.84268,645.6903 C 575.23846,647.01711 424.40699,652.07286 386.42122,652.17362 C 356.17111,652.25386 332.34345,652.28016 313.52874,652.38652 C 284.59783,652.55006 267.51974,652.90289 257.16988,653.93223 C 240.44561,655.59553 241.28952,659.02527 238.07952,666.27714 C 233.28648,677.10536 229.82589,678.94693 214.27111,678.94693 C 199.80424,678.94693 195.57709,677.05869 193.66371,669.74179 z M 109.11503,475.47225 C 104.98347,470.90696 101.60315,465.22721 101.60315,462.85057 C 101.60315,460.47394 95.475588,456.21651 87.986348,453.38962 C 71.094157,447.01357 69.443025,429.41448 84.586588,417.15297 C 90.835518,412.09331 94.252798,405.02239 93.385368,398.94689 C 91.700618,387.14749 107.01759,370.29945 119.42944,370.29945 C 124.24107,370.29945 132.11,375.29837 136.91595,381.40813 C 144.9904,391.67317 146.39629,391.99692 155.42705,385.67156 C 167.05842,377.52463 177.28929,358.76081 185.88858,329.8037 C 193.9986,302.49441 217.13588,275.70559 246.34194,259.80965 C 268.32803,247.84334 278.62155,247.09958 278.62155,257.47731 C 278.62155,260.03723 269.55567,273.70368 258.47519,287.84722 C 228.7157,325.83325 215.36793,366.75432 227.21832,383.67315 C 245.5197,409.802 288.09271,379.71393 303.59032,329.69792 C 310.04862,308.85479 333.58858,275.41333 348.10098,266.46492 C 356.07093,261.5506 371.77577,254.37323 383.00056,250.51517 C 400.04028,244.6585 404.41148,244.50277 409.48049,249.57182 C 414.54955,254.64085 411.84459,258.76897 393.09449,274.57928 C 367.00417,296.57901 347.83629,329.01038 343.88466,357.84062 C 341.17781,377.58907 341.49435,378.25493 355.9908,383.3084 C 381.35609,392.15079 398.65489,379.76609 432.94528,328.2146 C 464.21233,281.20836 483.50734,264.32788 513.73268,257.53669 C 558.44452,247.49064 565.83682,257.97882 531.77799,283.13954 C 501.75526,305.31864 480.61017,329.06137 468.28243,354.43556 C 457.19644,377.25387 459.78628,388.4552 476.14813,388.4552 C 494.05312,388.4552 514.14881,376.3335 545.01543,346.91442 C 576.74677,316.67108 591.8713,309.03876 629.25417,304.4047 C 667.89299,299.61502 662.09608,314.50185 616.32532,337.60685 C 585.06957,353.38464 555.14895,383.2168 565.24027,388.5408 C 568.61863,390.32312 583.30318,393.11409 597.87256,394.74287 C 612.44196,396.37164 630.25347,400.75065 637.45367,404.47403 C 661.0872,416.6954 666.98995,442.5831 644.16433,433.90485 C 634.25144,430.13598 554.47016,433.85464 488.81525,441.1458 C 473.8832,442.80408 456.81121,441.28745 442.20224,437.00497 C 422.23731,431.15245 416.3308,431.0962 398.09296,436.58501 C 374.63349,443.64526 340.89826,444.47471 311.13408,438.72304 C 296.14052,435.82573 283.35667,437.14849 257.49595,444.27321 C 229.18884,452.07197 219.14401,452.89986 197.08764,449.25213 C 167.23617,444.31522 160.60927,445.33293 160.60927,454.8543 C 160.60927,465.2976 139.44208,483.77279 127.47706,483.77279 C 121.50951,483.77279 113.24657,480.03757 109.11503,475.47225 z M 100.46842,270.07934 C 96.099698,267.53482 92.525278,260.87048 92.525278,255.26976 C 92.525278,247.69787 88.742558,243.97296 77.773737,240.74375 C 58.007011,234.92445 55.0941,216.54675 71.849383,203.36701 C 78.837417,197.87028 83.447398,189.67115 83.447398,182.7394 C 83.447398,162.48339 106.76832,147.58811 124.02377,156.82288 C 129.05443,159.51524 134.78624,167.95376 136.76118,175.57517 C 140.35188,189.43228 140.35188,189.43228 152.64354,179.76365 C 160.87117,173.29182 167.99497,160.18869 174.18946,140.13326 C 184.76239,105.90209 205.15575,68.09717 220.4916,54.29881 C 226.25074,49.11708 239.70451,41.49502 250.38893,37.36093 C 267.49593,30.7417 270.12728,30.65777 272.42983,36.65808 C 273.95792,40.64039 268.90827,50.46058 260.27787,60.29004 C 242.28141,80.78689 221.01542,125.30293 217.00993,150.86282 C 214.43632,167.28555 215.34733,170.41195 224.06626,175.07815 C 247.76817,187.76308 271.68459,170.07213 294.25223,123.1617 C 324.48505,60.31776 356.95702,31.7017 404.0606,26.39244 C 429.89304,23.48073 430.62059,32.79141 405.67384,47.03765 C 374.23491,64.99131 333.4314,124.44694 333.18842,152.65758 C 333.05188,168.50985 341.03243,175.14377 360.09542,175.02437 C 380.89603,174.8941 390.84741,166.40366 416.5696,126.84099 C 455.09833,67.58097 498.58584,37.13292 540.82009,39.84642 C 552.63674,40.60562 562.3049,43.25325 562.3049,45.72998 C 562.3049,48.20674 554.25629,54.02302 544.41907,58.65499 C 505.4495,77.00437 443.28331,159.99097 460.39708,170.81728 C 464.02169,173.11027 475.95868,175.01761 486.92374,175.05581 C 505.85188,175.12181 508.69905,173.27655 543.21645,138.57318 C 586.38714,95.16992 598.13758,88.4252 635.85747,85.3974 C 674.15001,82.32365 673.96824,91.064 635.33149,110.69076 C 607.82725,124.66235 580.54075,149.234 569.38795,170.07324 C 565.07418,178.13354 565.81383,179.71929 574.68696,181.43409 C 625.10077,191.17665 638.21573,195.04515 648.64567,203.24931 C 660.66848,212.70645 669.56759,229.02905 666.00679,235.09275 C 664.96327,236.86965 658.86062,236.32787 652.44526,233.88876 C 642.74055,230.19903 590.11139,226.19572 525.99343,224.26993 C 518.50419,224.04499 499.10025,226.14905 482.87357,228.94562 C 461.66273,232.60118 446.63675,232.67082 429.41242,229.1934 C 412.39273,225.75733 398.85435,225.77199 382.66493,229.244 C 353.91488,235.4098 313.1538,235.47756 291.2563,229.39603 C 278.14262,225.75397 268.62871,226.38548 248.51313,232.23327 C 231.63328,237.14035 214.90263,238.83912 200.38638,237.11988 C 171.08145,233.64914 151.5314,237.72515 151.5314,247.30565 C 151.5314,251.43102 148.3518,259.34576 144.46565,264.89403 C 136.79981,275.83853 114.80656,278.43051 100.46842,270.07934 z "
     sodipodi:nodetypes="cssssssssssssssssssssssssssccssccsssssssssssssssssssssssssssssssssssssssccssssssssssssssssssssssssssssssssssssssssssc" />
</svg>
